# xmcd CD database file
#
# Track frame offsets:
#	150
#	27163
#	48333
#	89531
#	121387
#	150796
#	190803
#	215622
#	240140
#	261329
#	289612
#
# Disc length: 4262 seconds
#
# Revision: 0
# Processed by: cddbd v1.5.2PL0 Copyright (c) Steve Scherf et al.
# Submitted via: CDex 1.51
#
DISCID=8b10a40b
DTITLE=Phil DeGreg - Trio con Brio at 82 hundred brill
DYEAR=2005
DGENRE=Jazz
TTITLE0=PP&D.Taking A Chance On Love.M
TTITLE1=PP&D.Move.M
TTITLE2=PP&D.NTK.M
TTITLE3=PP&D.Dreamer.M
TTITLE4=PP&D.Lover Man.M
TTITLE5=PP&D.Exactly Like You.M
TTITLE6=PP&D.Dreamsville.M
TTITLE7=PP&D.Button Up Your Overcoat.M
TTITLE8=PP&D.You Stepped Out Of A Dream.M
TTITLE9=PP&D.LJK.M
TTITLE10=PP&D.My Shinning Hour.M
EXTD=YEAR: 2005
EXTT0=
EXTT1=
EXTT2=
EXTT3=
EXTT4=
EXTT5=
EXTT6=
EXTT7=
EXTT8=
EXTT9=
EXTT10=
PLAYORDER=
